<svg width="992" height="964" viewBox="0 0 992 964" fill="none" xmlns="http://www.w3.org/2000/svg">
<path d="M16.7062 72.9149C30.5972 54.0237 51.4338 44.0808 79.216 42.0923C129.819 38.1151 158.593 61.9779 165.539 113.68C196.298 321.484 230.033 497.471 265.753 641.642L483.049 227.028C502.893 189.245 527.699 169.36 557.465 167.371C601.123 164.388 627.913 192.228 638.827 250.89C663.633 383.129 695.384 495.483 733.088 590.933C758.886 338.387 802.543 156.434 864.061 44.0809C878.944 16.2412 900.773 2.32136 929.547 0.332802C952.368 -1.65575 973.205 5.30419 992.057 20.2183C1010.91 35.1325 1020.83 54.0236 1022.82 76.892C1023.81 94.7889 1020.83 109.703 1012.89 124.617C974.197 196.205 942.446 316.513 916.648 483.552C891.843 645.619 882.913 771.892 888.866 862.371C890.851 887.228 886.882 909.102 876.96 927.993C865.053 949.867 847.193 961.799 824.372 963.787C798.574 965.776 771.784 953.844 745.987 926.999C653.71 832.543 580.286 691.355 526.707 503.437C462.212 630.705 414.586 726.155 383.827 789.789C325.286 902.142 275.675 959.81 234.002 962.793C207.212 964.782 184.391 941.913 164.547 894.188C113.944 763.938 59.3717 512.386 0.830764 139.532C-2.14589 113.68 2.81511 90.8119 16.7062 72.9149Z" fill="white"/>
</svg>
