<svg width="992" height="711" viewBox="0 0 992 711" fill="none" xmlns="http://www.w3.org/2000/svg">
<path d="M16.7062 -70.0851C30.5972 -88.9764 51.4338 -98.9192 79.216 -100.908C129.819 -104.885 158.593 -81.0221 165.539 -29.3197C196.298 178.484 230.033 354.471 265.753 498.642L483.049 84.0279C502.893 46.2453 527.699 26.3598 557.465 24.3712C601.123 21.3884 627.913 49.2281 638.827 107.89C663.633 240.129 695.384 352.483 733.088 447.933C758.886 195.387 802.543 13.4343 864.061 -98.9191C878.944 -126.759 900.773 -140.679 929.547 -142.667C952.368 -144.656 973.205 -137.696 992.057 -122.782C1010.91 -107.867 1020.83 -88.9764 1022.82 -66.108C1023.81 -48.2111 1020.83 -33.2967 1012.89 -18.3825C974.197 53.2054 942.446 173.513 916.648 340.552C891.843 502.619 882.913 628.892 888.866 719.371C890.851 744.228 886.882 766.102 876.96 784.993C865.053 806.867 847.193 818.799 824.372 820.787C798.574 822.776 771.784 810.844 745.987 783.999C653.71 689.543 580.286 548.355 526.707 360.437C462.212 487.705 414.586 583.155 383.827 646.789C325.286 759.142 275.675 816.81 234.002 819.793C207.212 821.782 184.391 798.913 164.547 751.188C113.944 620.938 59.3717 369.386 0.830764 -3.46838C-2.14589 -29.3196 2.81511 -52.1881 16.7062 -70.0851Z" fill="#5B8CFF"/>
</svg>
